<svg width="284" height="142" viewBox="0 0 284 142" fill="none" xmlns="http://www.w3.org/2000/svg">
<path d="M99.4 21.5H78.9V0H59.8V21.5H39.6C17.7 21.5 0 39.2 0 61.1V100.9H19.1V61.1C19.1 49.8 28.3 40.6 39.6 40.6H59.8V61.1C59.8 83 77.5 100.7 99.4 100.7C121.3 100.7 139 83 139 61.1C139 39.2 121.3 21.5 99.4 21.5ZM99.4 81.6C88.1 81.6 78.9 72.4 78.9 61.1V40.6H99.4C110.7 40.6 119.9 49.8 119.9 61.1C119.9 72.4 110.8 81.6 99.4 81.6Z" fill="white"/>
<path d="M264.4 21.5V61.1C264.4 72.4 255.2 81.6 243.9 81.6C232.6 81.6 223.4 72.4 223.4 61.1V21.5H204.3V61.1C204.3 72.4 195.1 81.6 183.8 81.6C172.5 81.6 163.3 72.4 163.3 61.1V21.5H144.2V61.1C144.2 83 161.9 100.7 183.8 100.7C195.8 100.7 206.6 95.3 213.8 86.9C221.1 95.4 231.8 100.7 243.8 100.7C265.7 100.7 283.4 83 283.4 61.1V21.5H264.4Z" fill="white"/>
<path d="M0 115.9C1.2 115.6 2.9 115.5 4.5 115.5C7 115.5 8.7 116 9.9 117.1C10.9 118 11.4 119.4 11.4 120.9C11.4 123.5 9.9 125.2 7.8 126V126.1C9.3 126.6 10.2 128 10.6 130.3C11.2 133.1 11.6 134.9 12 135.6H9.5C9.2 135 8.8 133.3 8.3 130.8C7.7 128.1 6.7 127 4.5 127H2.5V135.7H0V115.9ZM2.5 125H4.6C7.2 125 8.9 123.5 8.9 121.2C8.9 118.7 7.3 117.5 4.7 117.5C3.7 117.5 2.9 117.6 2.5 117.7C2.5 117.7 2.5 125 2.5 125Z" fill="white"/>
<path d="M26.5 132.2C26.5 133.4 26.5001 134.6 26.7001 135.6H24.5L24.3 133.9H24.2001C23.5001 135 22.1 135.9 20.3 135.9C17.7 135.9 16.3 134 16.3 131.8C16.3 128.3 19.3 126.5 24.1 126.5V126.1C24.1 124.7 23.7 122.8 21.1 122.8C19.9 122.8 18.7 123.2 17.8 123.8L17.2001 122.1C18.2001 121.5 19.8 120.9 21.5 120.9C25.4 120.9 26.5 123.6 26.5 126.5V132.2ZM24 128.2C21.7 128.2 18.6 128.6 18.6 131.4C18.6 133.1 19.7 133.9 20.8 133.9C22.4 133.9 23.5 132.9 23.9 131.6C24 131.3 24 131 24 130.8C24 130.8 24 128.2 24 128.2Z" fill="white"/>
<path d="M33.8 118.9C32.9 118.9 32.3 118.2 32.3 117.3C32.3 116.4 32.9 115.7 33.8 115.7C34.7 115.7 35.3 116.4 35.3 117.3C35.3 118.2 34.8 118.9 33.8 118.9ZM32.6 135.6V121.3H35.1V135.6H32.6Z" fill="white"/>
<path d="M41.2999 125.1C41.2999 123.6 41.2 122.5 41.2 121.3H43.4L43.5 123.5H43.5999C44.2999 122.2 45.8 121 47.9 121C49.8 121 52.4 122.3 52.4 126.7V135.6H49.9V127C49.9 124.9 49.2 123 47 123C45.5 123 44.3 124.1 43.9 125.6C43.8 125.9 43.7999 126.4 43.7999 126.8V135.5H41.2999V125.1Z" fill="white"/>
<path d="M58.4999 114.8H60.9999V123.4H61.0999C61.9999 121.9 63.3999 121 65.3999 121C68.5999 121 70.7999 123.8 70.7999 128.3C70.7999 133.4 67.8999 135.9 64.9999 135.9C63.0999 135.9 61.6999 135.1 60.7999 133.4H60.6999L60.5999 135.6H58.3999C58.4999 134.7 58.4999 133.2 58.4999 132V114.8V114.8ZM60.9999 130C60.9999 130.3 60.9999 130.6 61.0999 130.9C61.5999 132.8 62.9999 133.8 64.4999 133.8C66.9999 133.8 68.2999 131.5 68.2999 128.3C68.2999 125.4 67.0999 122.9 64.5999 122.9C63.0999 122.9 61.4999 124.2 61.0999 125.9C60.9999 126.2 60.9999 126.5 60.9999 126.9V130V130Z" fill="white"/>
<path d="M81.3001 135.9C77.8001 135.9 75.1001 133.2 75.1001 128.5C75.1001 123.6 78.0001 121 81.5001 121C85.1001 121 87.7001 123.8 87.7001 128.4C87.7001 133.7 84.4001 135.9 81.3001 135.9ZM81.4001 134C83.7001 134 85.1001 131.4 85.1001 128.4C85.1001 126 84.1001 122.9 81.4001 122.9C78.7001 122.9 77.6001 125.9 77.6001 128.5C77.7001 131.3 79.0001 134 81.4001 134Z" fill="white"/>
<path d="M93.8 121.3L95.5 128.4C95.9 130 96.2 131.5 96.5 133H96.6C96.9 131.6 97.3 130 97.8 128.5L99.9 121.3H101.9L103.9 128.4C104.3 130.1 104.8 131.6 105.1 133.1H105.2C105.4 131.6 105.8 130.1 106.2 128.5L108 121.4H110.5L106.2 135.7H104L102 128.8C101.5 127.2 101.2 125.8 100.9 124.2H100.8C100.5 125.9 100.1 127.4 99.6 128.8L97.5 135.6H95.3L91.2 121.3H93.8Z" fill="white"/>
<path d="M115.2 114.8H117.7V123.4H117.8C118.7 121.9 120.1 121 122.1 121C125.3 121 127.5 123.8 127.5 128.3C127.5 133.4 124.6 135.9 121.7 135.9C119.8 135.9 118.4 135.1 117.5 133.4H117.4L117.3 135.6H115.1C115.2 134.7 115.2 133.2 115.2 132C115.2 132 115.2 114.8 115.2 114.8ZM117.7 130C117.7 130.3 117.7 130.6 117.8 130.9C118.3 132.8 119.7 133.8 121.2 133.8C123.7 133.8 125 131.5 125 128.3C125 125.4 123.8 122.9 121.3 122.9C119.8 122.9 118.2 124.2 117.8 125.9C117.7 126.2 117.7 126.5 117.7 126.9V130Z" fill="white"/>
<path d="M132.7 125.5C132.7 124 132.6 122.5 132.6 121.3H134.8L134.9 124H135C135.6 122.2 137.1 121 138.7 121C139 121 139.1 121 139.3 121.1V123.5C139.1 123.4 138.9 123.4 138.6 123.4C136.9 123.4 135.6 124.8 135.3 126.6C135.2 127 135.2 127.4 135.2 127.8V135.5H132.7V125.5V125.5Z" fill="white"/>
<path d="M145.1 118.9C144.2 118.9 143.6 118.2 143.6 117.3C143.6 116.4 144.2 115.7 145.1 115.7C146 115.7 146.6 116.4 146.6 117.3C146.7 118.2 146.1 118.9 145.1 118.9ZM143.9 135.6V121.3H146.4V135.6H143.9Z" fill="white"/>
<path d="M163.8 114.8V132C163.8 133.2 163.9 134.7 163.9 135.6H161.7L161.6 133.3H161.5C160.8 134.7 159.3 135.9 157.2 135.9C154 135.9 151.6 133.1 151.6 128.6C151.6 123.8 154.3 121 157.4 121C159.3 121 160.6 121.9 161.2 123H161.3V114.8C161.3 114.8 163.8 114.8 163.8 114.8ZM161.3 127C161.3 126.7 161.3 126.3 161.2 125.9C160.9 124.3 159.6 123 157.9 123C155.4 123 154.1 125.5 154.1 128.5C154.1 131.4 155.3 133.8 157.8 133.8C159.2 133.8 160.7 132.9 161.2 130.9C161.3 130.6 161.3 130.3 161.3 129.8V127V127Z" fill="white"/>
<path d="M181 133.6C181 137.1 180.5 138.9 179.3 140C178.1 141.2 176.3 141.7 174.5 141.7C172.9 141.7 171.3 141.3 170.2 140.7L170.8 138.8C171.6 139.3 173 139.8 174.5 139.8C176.9 139.8 178.6 138.5 178.6 135V133.4H178.5C177.8 134.7 176.4 135.6 174.5 135.6C171.3 135.6 169 132.6 169 128.6C169 123.6 171.9 121.1 174.8 121.1C177 121.1 178.1 122.3 178.7 123.4H178.8L178.9 121.4H181.1C181 122.4 181 123.6 181 125.5V133.6V133.6ZM178.6 126.7C178.6 126.3 178.6 125.9 178.5 125.6C178.1 124.2 177.1 123 175.3 123C173.1 123 171.6 125.1 171.6 128.4C171.6 131.5 173 133.6 175.3 133.6C176.6 133.6 177.9 132.8 178.4 131.1C178.5 130.7 178.6 130.2 178.6 129.7V126.7Z" fill="white"/>
<path d="M188.8 128.8C188.8 132.6 190.9 133.9 193.2 133.9C194.8 133.9 195.9 133.6 196.7 133.2L197.1 135C196.2 135.4 194.8 135.8 192.8 135.8C188.7 135.8 186.3 132.9 186.3 128.6C186.3 124.2 188.7 121 192.5 121C196.6 121 197.8 124.8 197.8 127.6C197.8 128.2 197.8 128.5 197.7 128.8H188.8ZM195.4 127C195.4 125 194.6 122.8 192.2 122.8C189.9 122.8 188.9 125.1 188.7 127H195.4Z" fill="white"/>
<path d="M213.2 135.6L208.5 115.7H211.1L213.3 125.6C213.8 128.1 214.3 130.5 214.6 132.6H214.7C215 130.5 215.6 128.1 216.2 125.6L218.6 115.7H221.1L223.3 125.6C223.8 128 224.3 130.3 224.6 132.6H224.7C225.1 130.2 225.6 128 226.1 125.6L228.4 115.7H230.9L225.8 135.6H223.3L221 125.4C220.4 123 220 120.9 219.8 118.9H219.7C219.4 121 219 123 218.3 125.5L215.7 135.6H213.2Z" fill="white"/>
<path d="M239.8 135.9C236.3 135.9 233.6 133.2 233.6 128.5C233.6 123.6 236.5 121 240 121C243.6 121 246.2 123.8 246.2 128.4C246.2 133.7 242.8 135.9 239.8 135.9ZM239.9 134C242.2 134 243.6 131.4 243.6 128.4C243.6 126 242.6 122.9 239.9 122.9C237.2 122.9 236.1 125.9 236.1 128.5C236.1 131.3 237.5 134 239.9 134Z" fill="white"/>
<path d="M251.4 125.5C251.4 124 251.3 122.5 251.3 121.3H253.5L253.6 124H253.7C254.3 122.2 255.8 121 257.4 121C257.7 121 257.8 121 258 121.1V123.5C257.8 123.4 257.6 123.4 257.3 123.4C255.6 123.4 254.3 124.8 254 126.6C253.9 127 253.9 127.4 253.9 127.8V135.5H251.4V125.5Z" fill="white"/>
<path d="M262.6 114.8H265.1V135.6H262.6V114.8Z" fill="white"/>
<path d="M282.6 114.8V132C282.6 133.2 282.7 134.7 282.7 135.6H280.5L280.4 133.3H280.3C279.6 134.7 278.1 135.9 276 135.9C272.8 135.9 270.4 133.1 270.4 128.6C270.4 123.8 273.1 121 276.2 121C278.1 121 279.4 121.9 280 123H280.1V114.8C280.1 114.8 282.6 114.8 282.6 114.8ZM280.1 127C280.1 126.7 280.1 126.3 280 125.9C279.7 124.3 278.4 123 276.7 123C274.2 123 272.9 125.5 272.9 128.5C272.9 131.4 274.1 133.8 276.6 133.8C278 133.8 279.5 132.9 280 130.9C280.1 130.6 280.1 130.3 280.1 129.8V127V127Z" fill="white"/>
</svg>
